<?xml version="1.0" encoding="UTF-8" standalone="no"?>
<!-- Created with Inkscape (http://www.inkscape.org/) -->

<svg
   width="58.497219mm"
   height="58.497219mm"
   viewBox="0 0 58.497219 58.497219"
   version="1.1"
   id="svg5"
   inkscape:version="1.1.1 (eb90963e84, 2021-10-02)"
   sodipodi:docname="anarchism_fr.svg"
   xmlns:inkscape="http://www.inkscape.org/namespaces/inkscape"
   xmlns:sodipodi="http://sodipodi.sourceforge.net/DTD/sodipodi-0.dtd"
   xmlns:xlink="http://www.w3.org/1999/xlink"
   xmlns="http://www.w3.org/2000/svg"
   xmlns:svg="http://www.w3.org/2000/svg">
  <sodipodi:namedview
     id="namedview7"
     pagecolor="#505050"
     bordercolor="#eeeeee"
     borderopacity="1"
     inkscape:pageshadow="0"
     inkscape:pageopacity="0"
     inkscape:pagecheckerboard="0"
     inkscape:document-units="mm"
     showgrid="false"
     showguides="true"
     inkscape:guide-bbox="true"
     inkscape:zoom="1.877186"
     inkscape:cx="-11.71967"
     inkscape:cy="153.42113"
     inkscape:current-layer="layer1"
     inkscape:snap-page="true"
     inkscape:snap-bbox="false"
     inkscape:bbox-paths="true"
     inkscape:bbox-nodes="true"
     inkscape:snap-bbox-edge-midpoints="true"
     inkscape:snap-bbox-midpoints="true" />
  <defs
     id="defs2">
    <linearGradient
       inkscape:collect="always"
       id="linearGradient6091">
      <stop
         style="stop-color:#ffffff;stop-opacity:1;"
         offset="0"
         id="stop6087" />
      <stop
         style="stop-color:#ffffff;stop-opacity:0.60000002"
         offset="0.66669828"
         id="stop6967" />
      <stop
         style="stop-color:#ffffff;stop-opacity:0.1"
         offset="1"
         id="stop6089" />
    </linearGradient>
    <linearGradient
       inkscape:collect="always"
       xlink:href="#linearGradient6091"
       id="linearGradient6093"
       x1="305.70969"
       y1="418.57559"
       x2="367.50723"
       y2="356.77802"
       gradientUnits="userSpaceOnUse"
       spreadMethod="reflect" />
  </defs>
  <g
     inkscape:label="Calque 1"
     inkscape:groupmode="layer"
     id="layer1"
     transform="translate(-75.751391,-119.25139)">
    <path
       sodipodi:type="star"
       style="fill:url(#linearGradient6093);fill-opacity:1;stroke:#000000;stroke-width:1.05642;stroke-linecap:round;stroke-miterlimit:4;stroke-dasharray:none;stroke-opacity:0.6;paint-order:markers fill stroke"
       id="path1042"
       inkscape:flatsided="false"
       sodipodi:sides="60"
       sodipodi:cx="305.70967"
       sodipodi:cy="418.57558"
       sodipodi:r1="57.302876"
       sodipodi:r2="60.960506"
       sodipodi:arg1="0.17187146"
       sodipodi:arg2="0.22423134"
       inkscape:rounded="0"
       inkscape:randomized="0"
       d="m 362.16827,428.37589 2.97578,3.75469 -4.30948,2.09316 2.56701,4.04516 -4.50466,1.63123 2.1301,4.29134 -4.65049,1.15143 1.66987,4.49048 -4.74538,0.65901 1.19134,4.64043 -4.78826,0.15938 0.69976,4.73954 -4.7787,-0.34201 0.20051,4.78672 -4.71677,-0.83964 -0.30094,4.78146 -4.60316,-1.32809 -0.79909,4.72381 -4.43913,-1.80196 -1.28848,4.6144 -4.22645,-2.25611 -1.76376,4.45444 -3.96747,-2.68554 -2.21971,4.24568 -3.66502,-3.08554 -2.65135,3.9904 -3.32242,-3.45174 -3.05393,3.6914 -2.94341,-3.78012 -3.42306,3.35195 -2.53216,-4.06707 -3.75468,2.97578 -2.09316,-4.30948 -4.04517,2.56701 -1.63123,-4.50467 -4.29134,2.13011 -1.15143,-4.65049 -4.49048,1.66987 -0.65901,-4.74538 -4.64043,1.19134 -0.15938,-4.78827 -4.73954,0.69976 0.34201,-4.77869 -4.78672,0.20051 0.83964,-4.71677 -4.78146,-0.30094 1.32809,-4.60316 -4.72381,-0.79909 1.80197,-4.43913 -4.61441,-1.28848 2.25611,-4.22645 -4.45444,-1.76376 2.68554,-3.96747 -4.24568,-2.21972 3.08554,-3.66501 -3.9904,-2.65135 3.45174,-3.32242 -3.6914,-3.05393 3.78012,-2.94341 -3.35195,-3.42307 4.06707,-2.53215 -2.97578,-3.75469 4.30948,-2.09316 -2.56701,-4.04516 4.50467,-1.63123 -2.13011,-4.29134 4.6505,-1.15143 -1.66988,-4.49048 4.74538,-0.65901 -1.19134,-4.64044 4.78827,-0.15937 -0.69976,-4.73954 4.77869,0.34201 -0.2005,-4.78672 4.71676,0.83964 0.30094,-4.78146 4.60317,1.32809 0.79908,-4.72381 4.43913,1.80196 1.28848,-4.6144 4.22645,2.25611 1.76376,-4.45444 3.96747,2.68554 2.21972,-4.24568 3.66502,3.08554 2.65135,-3.9904 3.32241,3.45174 3.05394,-3.6914 2.94341,3.78012 3.42306,-3.35195 2.53215,4.06707 3.75469,-2.97578 2.09316,4.30948 4.04517,-2.56701 1.63123,4.50467 4.29133,-2.13011 1.15143,4.65049 4.49048,-1.66987 0.65901,4.74538 4.64044,-1.19134 0.15937,4.78826 4.73954,-0.69975 -0.34201,4.77869 4.78672,-0.20051 -0.83964,4.71677 4.78146,0.30094 -1.32808,4.60316 4.72381,0.79909 -1.80197,4.43913 4.6144,1.28848 -2.25611,4.22645 4.45444,1.76376 -2.68554,3.96747 4.24568,2.21972 -3.08554,3.66501 3.9904,2.65135 -3.45174,3.32242 3.6914,3.05393 -3.78011,2.94341 3.35195,3.42307 z"
       transform="matrix(0.47329713,0,0,0.47329713,-39.69151,-49.610621)"
       inkscape:transform-center-x="0.011134188"
       inkscape:transform-center-y="0.0093141852" />
    <circle
       style="fill:none;fill-opacity:0.75;stroke:#000000;stroke-width:1;stroke-linecap:round;stroke-miterlimit:4;stroke-dasharray:none;stroke-opacity:1;paint-order:markers fill stroke"
       id="path4700"
       cx="105"
       cy="148.5"
       r="25.46979" />
    <circle
       style="fill:none;fill-opacity:0.75;stroke:#000000;stroke-width:0.4;stroke-linecap:round;stroke-miterlimit:4;stroke-dasharray:none;stroke-opacity:1;paint-order:markers fill stroke"
       id="path5254"
       cx="105"
       cy="148.5"
       r="24.299999" />
    <text
       xml:space="preserve"
       style="font-style:normal;font-variant:normal;font-weight:500;font-stretch:normal;font-size:3.52778px;line-height:1.25;font-family:Butler;-inkscape-font-specification:'Butler, Medium';font-variant-ligatures:normal;font-variant-caps:normal;font-variant-numeric:normal;font-variant-east-asian:normal;text-align:center;letter-spacing:0px;word-spacing:2.11667px;writing-mode:lr-tb;text-anchor:middle;stroke-width:0.264583"
       id="text9119"><textPath
         xlink:href="#circle5416"
         startOffset="50%"
         id="textPath12139"><tspan
           id="tspan9117"
           style="font-style:normal;font-variant:normal;font-weight:500;font-stretch:normal;font-size:3.52778px;font-family:Butler;-inkscape-font-specification:'Butler, Medium';font-variant-ligatures:normal;font-variant-caps:normal;font-variant-numeric:normal;font-variant-east-asian:normal;stroke-width:0.264583"
           dy="-1.3 0 0 0 0 0 0 0 0 0 0 0 0 0 0 0 0 0 0 0 0 0 0 0 0 0 0 0 0 0 0 0 0 0 0 0">ANARCHISME 路 ANARCHISME 路 ANARCHISME 路 ANARCHISME 路</tspan></textPath></text>
    <circle
       style="fill:none;fill-opacity:0.75;stroke:#000000;stroke-width:0.4;stroke-linecap:round;stroke-miterlimit:4;stroke-dasharray:none;stroke-opacity:1;paint-order:markers fill stroke"
       id="circle5416"
       cx="105"
       cy="148.5"
       r="19.299999" />
    <path
       id="circle5416-6"
       style="fill:#000000;fill-opacity:0.972738;stroke:none;stroke-width:0.4;stroke-linecap:round;stroke-miterlimit:4;stroke-dasharray:none;stroke-opacity:1;paint-order:markers fill stroke"
       d="m 104.99845,130.50035 a 18,18 0 0 0 -17.996831,17.91416 c 0.03308,-0.0246 0.06494,-0.0475 0.101287,-0.0791 0.110422,-0.0959 0.333428,-0.20054 0.495576,-0.23254 0.174733,-0.0345 0.30817,-0.10205 0.327112,-0.16588 0.01757,-0.0592 0.06991,-0.0973 0.11679,-0.0847 0.09542,0.0255 0.233045,-0.21892 0.332795,-0.59118 0.05812,-0.21689 0.08084,-0.23943 0.181901,-0.1819 0.06339,0.0361 0.121952,0.0407 0.130226,0.009 0.0083,-0.0309 -0.0254,-0.0674 -0.07493,-0.0806 -0.105381,-0.0282 -0.122698,-0.41954 -0.03307,-0.75603 0.04407,-0.16517 0.03504,-0.23965 -0.031,-0.25735 -0.09356,-0.025 -0.0912,-0.0471 0.07493,-0.79427 0.03651,-0.16419 0.03962,-0.37918 0.0072,-0.47748 -0.119213,-0.36188 0.295445,-1.44217 0.626835,-1.6335 0.08428,-0.0487 0.1113,-0.0436 0.119375,0.0222 0.0057,0.0469 0.02947,0.0233 0.05271,-0.0527 0.02326,-0.076 0.07588,-0.12929 0.116789,-0.11834 0.05784,0.0155 0.06249,-7.9e-4 0.02016,-0.0744 -0.02994,-0.0519 -0.03741,-0.15826 -0.01654,-0.23616 0.06742,-0.25164 0.335095,-0.66185 0.417547,-0.63976 0.04406,0.0118 0.09121,-0.0202 0.104902,-0.0713 0.01371,-0.0511 -0.0027,-0.10043 -0.03669,-0.10956 -0.03408,-0.009 -0.05329,-0.0497 -0.04238,-0.0904 0.02405,-0.0897 0.441166,-0.45812 0.631486,-0.55759 0.07981,-0.0417 0.131884,-0.1179 0.125058,-0.18293 -0.0064,-0.0614 0.02437,-0.13878 0.06873,-0.17209 0.134869,-0.10126 0.444765,-0.60497 0.500745,-0.8139 0.07216,-0.2693 0.27582,-0.55503 0.376206,-0.52813 0.04551,0.0122 0.115131,-0.0292 0.155027,-0.0915 0.03991,-0.0624 0.109226,-0.10348 0.153998,-0.0915 0.04477,0.012 0.200097,-0.11078 0.345197,-0.27285 0.145092,-0.16206 0.287232,-0.28824 0.315743,-0.2806 0.02852,0.008 0.06556,-0.0367 0.08217,-0.0987 0.04945,-0.18454 0.381852,-0.694 0.495578,-0.75965 0.05804,-0.0335 0.142827,-0.11963 0.188619,-0.1912 0.05365,-0.0839 0.116848,-0.11092 0.178284,-0.076 0.0711,0.0404 0.111702,0.008 0.158644,-0.12609 0.085,-0.24357 0.278638,-0.40517 0.533302,-0.44494 0.15857,-0.0248 0.222253,-0.0736 0.255281,-0.19689 0.02889,-0.10784 0.175416,-0.25114 0.427365,-0.41754 0.210863,-0.13926 0.404972,-0.25659 0.431499,-0.26097 0.02652,-0.004 0.04422,-0.0465 0.03927,-0.0935 -0.01434,-0.13649 0.226279,-0.35937 0.637172,-0.58963 0.209534,-0.11742 0.450675,-0.27621 0.535884,-0.35243 0.117774,-0.10537 0.20501,-0.12476 0.363802,-0.0822 0.125765,0.0337 0.232233,0.0235 0.267685,-0.0253 0.05099,-0.0702 0.177326,-0.12245 0.782381,-0.32453 0.281937,-0.0942 0.424656,-0.22247 0.520898,-0.46767 0.09883,-0.25176 0.111543,-0.25993 0.312126,-0.20619 0.114874,0.0308 0.216183,0.0284 0.225309,-0.006 0.0091,-0.0341 0.04243,-0.0554 0.0739,-0.047 0.05799,0.0155 0.534247,-0.23868 0.548801,-0.293 0.02431,-0.0908 0.479366,-0.36117 0.567926,-0.33745 0.0576,0.0155 0.12948,0.005 0.15967,-0.0238 0.0302,-0.0285 0.14992,-0.026 0.26614,0.005 0.17164,0.046 0.20917,0.035 0.19947,-0.0574 -0.008,-0.0794 0.007,-0.0931 0.0522,-0.0455 0.0353,0.0374 0.0722,0.13436 0.0822,0.21549 0.0177,0.145 0.0185,0.1451 0.061,0.002 0.034,-0.11458 0.0679,-0.13173 0.15865,-0.0801 0.0634,0.0361 0.12107,0.0441 0.12816,0.0176 0.007,-0.0263 0.12164,-0.0362 0.25476,-0.0217 0.13313,0.0145 0.30993,0.0246 0.39274,0.0222 0.11811,-0.003 0.14414,0.0211 0.12092,0.11214 -0.0204,0.0802 0.0164,0.0637 0.11937,-0.0537 0.13115,-0.14953 0.20397,-0.16776 0.60255,-0.15193 0.2492,0.01 0.57935,-0.009 0.73381,-0.0419 0.15445,-0.0329 0.37795,-0.0339 0.49661,-0.002 0.11865,0.0318 0.24008,0.0347 0.27027,0.006 0.0302,-0.0285 0.11001,-0.0371 0.17725,-0.0191 0.0672,0.018 0.14951,-0.005 0.18293,-0.0512 0.0552,-0.076 0.30721,-0.14039 0.61444,-0.15762 0.0661,-0.003 0.13487,-0.0687 0.15657,-0.14779 0.0635,-0.23124 0.18341,-0.40161 0.26666,-0.37931 0.0429,0.0115 0.11875,-0.0622 0.16898,-0.16381 0.0955,-0.19307 0.54813,-0.50545 0.68212,-0.47077 0.0427,0.0111 0.0842,-0.003 0.092,-0.0326 0.008,-0.0289 0.087,-0.10192 0.17622,-0.16226 0.0892,-0.0603 0.17555,-0.15928 0.19172,-0.21963 0.0162,-0.0604 0.11994,-0.17243 0.23048,-0.2496 0.1385,-0.0967 0.19141,-0.15956 0.29869,-0.48575 a 18,18 0 0 0 -2.6293,-0.19431 z m 6.31021,1.14464 c -0.008,0.0565 -0.0182,0.10825 -0.0346,0.14469 -0.0659,0.14652 -0.0704,0.2141 -0.015,0.22893 0.0586,0.0157 0.0451,0.11371 -0.0543,0.38395 -0.10034,0.27298 -0.11391,0.36836 -0.0537,0.38448 0.16395,0.0439 0.21229,0.39102 0.0971,0.69918 -0.0603,0.16145 -0.0859,0.3002 -0.0568,0.30799 0.0291,0.008 0.0425,0.0523 0.03,0.0992 -0.0429,0.15991 0.70332,0.4621 1.13068,0.45785 0.12575,-0.001 0.23518,0.0261 0.24908,0.062 0.0365,0.0948 0.16911,0.14625 0.18862,0.0734 0.0197,-0.0733 0.32185,0.0134 0.62787,0.17983 0.15361,0.0835 0.20949,0.15507 0.19792,0.25476 -0.0166,0.14296 0.0886,0.23163 0.49092,0.41497 0.18485,0.0842 0.21522,0.1263 0.18191,0.25063 -0.033,0.1233 -0.002,0.16791 0.17931,0.25476 0.1206,0.0578 0.24648,0.15264 0.28009,0.21084 0.0336,0.0582 0.12417,0.12255 0.20102,0.14314 0.0768,0.0206 0.18668,0.12484 0.24391,0.23151 0.0572,0.10667 0.1382,0.20316 0.18035,0.21446 0.0422,0.0113 0.12249,0.11797 0.17829,0.2372 0.0825,0.17628 0.14002,0.22135 0.30696,0.24081 0.11628,0.0136 0.19763,0.0517 0.1881,0.0873 -0.009,0.0348 0.0474,0.0636 0.12609,0.0641 0.0973,5.3e-4 0.1229,0.0196 0.0801,0.06 -0.041,0.0386 -0.0254,0.0556 0.045,0.0481 0.0666,-0.007 0.14901,0.0662 0.21497,0.1912 0.0757,0.14336 0.16937,0.21919 0.32143,0.25993 0.11813,0.0317 0.33987,0.16906 0.49248,0.30489 0.21755,0.19362 0.26394,0.27057 0.21497,0.35657 -0.0357,0.0626 -0.0324,0.10049 0.008,0.0884 0.0387,-0.0116 0.0702,0.0418 0.0698,0.11835 -5.3e-4,0.0766 0.0284,0.147 0.0641,0.15657 0.0357,0.01 0.15909,0.0933 0.2744,0.18604 0.16808,0.13517 0.2006,0.20143 0.16485,0.33486 -0.0245,0.0915 -0.0118,0.21257 0.0279,0.26872 0.0398,0.0561 0.0585,0.15407 0.0413,0.21807 -0.0172,0.064 0.009,0.12748 0.0574,0.14056 0.0488,0.0131 0.0917,0.0841 0.0951,0.15813 0.004,0.0843 0.0605,0.14914 0.15193,0.17364 0.11174,0.0299 0.14384,0.0849 0.13694,0.23616 -0.0107,0.23489 0.10389,0.36001 0.34675,0.37775 0.13364,0.01 0.18004,0.0441 0.18759,0.13953 0.0114,0.14137 0.25047,0.55606 0.33331,0.57826 0.0821,0.022 0.33528,0.48823 0.31213,0.57464 -0.0113,0.042 0.0191,0.15143 0.0677,0.24288 0.0486,0.0914 0.0774,0.20712 0.0641,0.25683 -0.0133,0.0497 -0.006,0.1053 0.0165,0.12351 0.097,0.0784 0.21005,0.51967 0.17414,0.68006 -0.0237,0.10598 -0.0162,0.13555 0.0186,0.0744 0.0673,-0.11823 0.1261,-0.11301 0.20154,0.0176 0.0424,0.0734 0.0589,0.0775 0.0744,0.0196 0.0109,-0.0409 0.0601,-0.0638 0.10904,-0.0506 0.0552,0.0148 0.0762,0.10249 0.0548,0.23048 l -0.0346,0.2067 0.51987,0.15917 c 0.30092,0.092 0.53049,0.19306 0.54467,0.24029 0.0199,0.0662 0.51313,0.16124 0.95653,0.20929 A 18,18 0 0 0 111.309,131.64498 Z m -3.94756,5.43429 c -0.095,-0.009 -0.20788,0.0487 -0.16847,0.11731 0.0138,0.024 -0.0653,0.14864 -0.17621,0.27698 -0.11091,0.12834 -0.24596,0.32525 -0.30024,0.4377 -0.0543,0.11246 -0.12718,0.22698 -0.16175,0.25425 -0.0346,0.0272 -0.11312,0.16069 -0.17466,0.29662 -0.0621,0.13718 -0.15851,0.25177 -0.21653,0.25787 -0.0604,0.006 -0.0999,0.0557 -0.0935,0.11679 0.006,0.058 -0.009,0.0839 -0.0341,0.0574 -0.0249,-0.0264 -0.0747,0.003 -0.11059,0.0667 -0.0359,0.0631 -0.036,0.10594 0,0.0951 0.16068,-0.0483 -0.17963,0.47882 -0.34933,0.54105 -0.0918,0.0337 -0.16688,0.18438 -0.14573,0.293 0.0113,0.0578 -0.0762,0.38385 -0.1943,0.72451 -0.16126,0.46526 -0.26221,0.66644 -0.40669,0.80822 -0.10579,0.1038 -0.20705,0.24279 -0.2248,0.30902 -0.0177,0.0663 -0.0678,0.11363 -0.1111,0.1049 -0.063,-0.0127 -0.0651,-0.005 -0.01,0.0357 0.0789,0.0594 -0.0616,0.67037 -0.14883,0.64699 -0.0301,-0.008 -0.0917,0.0426 -0.13694,0.11265 -0.0778,0.1205 -0.082,0.11685 -0.0749,-0.0698 l 0.007,-0.1974 -0.093,0.18345 c -0.0511,0.10086 -0.20256,0.2536 -0.33693,0.33951 -0.15079,0.0964 -0.2666,0.22741 -0.30179,0.3421 -0.0314,0.10219 -0.10697,0.35815 -0.16847,0.56844 -0.089,0.30418 -0.14212,0.3938 -0.25941,0.43925 -0.0811,0.0314 -0.16491,0.0385 -0.18656,0.0155 -0.0621,-0.066 -0.11269,0.20019 -0.0667,0.35089 0.0619,0.20269 -0.21785,0.57137 -0.41548,0.54777 -0.0991,-0.0118 -0.14352,0.0156 -0.13642,0.0832 0.006,0.0565 -0.0121,0.0771 -0.0408,0.0465 -0.0503,-0.0535 -0.10818,0.0583 -0.14366,0.27801 -0.01,0.0617 -0.0977,0.17187 -0.19534,0.24495 -0.1034,0.0774 -0.15202,0.14934 -0.11678,0.1726 0.0333,0.022 0.0511,0.0873 0.0398,0.14521 -0.0169,0.0868 -0.0103,0.0866 0.0393,-0.001 0.0386,-0.0683 0.0968,-0.085 0.16278,-0.0475 h 5.2e-4 c 0.0775,0.0442 0.10281,0.028 0.10336,-0.0656 7.9e-4,-0.11158 0.0396,-0.11354 0.38447,-0.0212 0.26835,0.0719 0.55777,0.0892 0.96067,0.0579 0.31714,-0.0247 0.63763,-0.0283 0.71158,-0.009 0.18007,0.0485 1.02279,0.0802 1.17719,0.0444 0.0676,-0.0157 0.16186,-0.0178 0.20929,-0.005 0.0474,0.0127 0.13197,-0.009 0.1881,-0.0496 0.0561,-0.0398 0.14063,-0.0617 0.18759,-0.0491 0.047,0.0126 0.0742,0.0647 0.0605,0.11576 -0.0137,0.0511 -0.001,0.0996 0.0284,0.10749 0.0294,0.008 0.0586,-0.0586 0.0651,-0.1478 0.009,-0.11725 0.0472,-0.16491 0.13849,-0.17156 0.0695,-0.005 0.35726,-0.0351 0.63975,-0.0667 0.40129,-0.045 0.58912,-0.0328 0.85887,0.0563 0.18989,0.0627 0.33817,0.0899 0.32917,0.0599 -0.009,-0.0299 0.0147,-0.046 0.0532,-0.0357 0.11142,0.0299 0.2917,-0.0996 0.32815,-0.23565 0.0184,-0.0686 0.0628,-0.13339 0.0987,-0.14417 0.0359,-0.0108 0.0496,-0.1734 0.0305,-0.36174 -0.0191,-0.1882 -0.019,-0.40022 0,-0.47129 0.0428,-0.15987 -0.045,-0.5165 -0.18293,-0.74414 -0.057,-0.0941 -0.088,-0.22822 -0.0692,-0.29817 0.0187,-0.07 0.006,-0.14572 -0.0274,-0.16795 -0.0337,-0.0223 -0.0544,-0.27089 -0.0465,-0.55294 0.008,-0.28206 -0.0234,-0.64934 -0.0692,-0.81597 -0.0458,-0.16663 -0.0748,-0.41202 -0.0646,-0.54518 0.0102,-0.13317 -0.0139,-0.25044 -0.0532,-0.26097 -0.0902,-0.0242 -0.16708,-0.52309 -0.11214,-0.72812 0.0228,-0.085 0.0769,-0.14611 0.11988,-0.13591 0.043,0.0101 0.0213,-0.063 -0.0475,-0.16226 -0.17646,-0.2546 -0.23841,-0.50077 -0.20153,-0.79892 0.0175,-0.14146 0.0292,-0.36239 0.0258,-0.49093 -0.008,-0.31549 0.0641,-0.56291 0.16846,-0.57567 0.0513,-0.006 0.0428,-0.0241 -0.0212,-0.0444 -0.0651,-0.021 -0.0944,-0.0828 -0.0739,-0.15917 0.0204,-0.0762 -0.02,-0.16448 -0.10283,-0.22427 -0.18037,-0.13015 -0.25898,-0.4976 -0.14883,-0.69557 0.0467,-0.084 0.0597,-0.13819 0.0289,-0.1204 -0.0308,0.0177 -0.0948,-0.003 -0.14211,-0.0481 -0.0215,-0.02 -0.051,-0.0305 -0.0827,-0.0336 z m -4.06332,0.0599 c -0.0147,0.002 -0.0453,0.0189 -0.0941,0.047 -0.0753,0.0435 -0.15833,0.0562 -0.18448,0.0284 -0.0261,-0.0278 -0.0614,2.7e-4 -0.078,0.0625 -0.0347,0.12951 -0.62195,0.31115 -1.06815,0.33021 -0.15708,0.007 -0.29205,0.0354 -0.29972,0.0641 -0.0329,0.12289 -0.13473,0.005 -0.10594,-0.12195 0.0239,-0.10581 0.003,-0.093 -0.0837,0.0512 -0.0676,0.11235 -0.16958,0.19166 -0.24495,0.1912 -0.0709,-5.3e-4 -0.13883,0.0373 -0.15141,0.0842 -0.0291,0.10873 -0.601,0.3303 -0.74983,0.29042 -0.0619,-0.0166 -0.15712,0.0176 -0.21187,0.076 -0.05476,0.0584 -0.147929,0.0933 -0.206706,0.0775 -0.05878,-0.0157 -0.156718,0.0177 -0.217556,0.0744 -0.06084,0.0567 -0.146847,0.0935 -0.191204,0.0816 -0.04435,-0.0119 -0.206063,0.0638 -0.359667,0.16795 -0.153609,0.10416 -0.324972,0.17798 -0.380857,0.16382 -0.05586,-0.0142 -0.133093,0.0296 -0.171566,0.0971 -0.05142,0.0903 -0.101402,0.10496 -0.188619,0.0553 -0.06528,-0.0371 -0.126606,-0.0397 -0.135908,-0.005 -0.0092,0.0345 -0.05225,0.0372 -0.0956,0.005 -0.04335,-0.0315 -0.105929,-0.0202 -0.13901,0.0253 -0.03395,0.0468 -0.02893,0.0736 0.01138,0.0615 0.03928,-0.0118 0.05931,0.0236 0.04444,0.0791 -0.0263,0.0982 -0.545833,0.41815 -0.63872,0.39326 -0.02561,-0.007 -0.08089,0.0493 -0.122989,0.12506 -0.04211,0.0757 -0.136972,0.13737 -0.210325,0.13694 -0.07335,-5.3e-4 -0.145124,0.0434 -0.159679,0.0977 -0.01455,0.0543 -0.05232,0.0918 -0.08423,0.0832 -0.03191,-0.009 -0.150897,0.0795 -0.264067,0.19534 -0.113173,0.11581 -0.228502,0.20434 -0.256315,0.19688 -0.02781,-0.007 -0.06176,0.0285 -0.07545,0.0796 -0.01371,0.0511 -0.09546,0.13355 -0.181901,0.18346 -0.08644,0.0499 -0.176139,0.16032 -0.198954,0.24546 -0.03915,0.14611 -0.61306,0.57452 -0.587044,0.43822 0.0064,-0.0333 -0.02558,-0.0105 -0.0708,0.0501 -0.04629,0.0622 -0.06064,0.13445 -0.03307,0.16485 0.05719,0.0631 -0.320138,0.70128 -0.453718,0.7674 -0.0479,0.0238 -0.170394,0.20773 -0.272336,0.40876 -0.109558,0.21605 -0.217548,0.35662 -0.264064,0.34416 -0.0485,-0.013 -0.07908,0.0304 -0.07958,0.11317 -0.0011,0.18032 -0.288047,0.65558 -0.403077,0.66766 -0.05054,0.005 -0.105701,0.0625 -0.122992,0.12713 -0.01728,0.0646 -0.06032,0.10971 -0.0956,0.10025 -0.04193,-0.0112 -0.0518,0.0355 -0.02842,0.13539 0.04744,0.20299 -0.163367,0.72561 -0.338479,0.83871 -0.146121,0.0944 -0.167764,0.14711 -0.455787,1.13016 -0.235905,0.80516 -0.231158,0.75294 -0.06305,0.71365 0.107344,-0.0251 0.137512,-0.0133 0.125058,0.0481 v 0.001 c -0.01079,0.053 0.0042,0.0521 0.04341,-0.003 0.141497,-0.19769 0.41274,-0.36671 0.677995,-0.42323 0.382021,-0.0814 0.858372,-0.0932 1.107427,-0.0274 0.115863,0.0307 0.228015,0.0206 0.259932,-0.0233 0.03082,-0.0424 0.142735,-0.0714 0.248563,-0.0646 0.105825,0.007 0.300757,-0.0602 0.433564,-0.14882 0.132803,-0.0886 0.34203,-0.17416 0.465088,-0.18966 0.123063,-0.0155 0.262104,-0.0577 0.309025,-0.0941 0.08906,-0.069 0.928775,0.005 1.007692,0.0889 0.02492,0.0264 0.102142,0.0356 0.171564,0.0207 0.06942,-0.0149 0.208476,-0.0414 0.309025,-0.0589 0.117213,-0.0205 0.228756,-0.1063 0.310576,-0.23978 0.167801,-0.27376 0.525714,-1.11102 0.577226,-1.34979 0.02238,-0.10361 0.08128,-0.23732 0.13074,-0.29714 0.04947,-0.0598 0.17226,-0.22169 0.272852,-0.35915 0.293547,-0.40111 0.868394,-1.05826 0.952396,-1.08882 0.04562,-0.0166 0.0329,-0.0403 -0.03101,-0.0579 -0.165119,-0.0457 7.94e-4,-0.61678 0.214977,-0.74052 0.0864,-0.0499 0.17265,-0.14728 0.1912,-0.21653 0.0186,-0.0692 0.0795,-0.13102 0.13591,-0.13694 0.0718,-0.008 0.12706,-0.10179 0.18397,-0.31419 0.0611,-0.22825 0.10418,-0.29676 0.17415,-0.27802 0.0511,0.0137 0.10502,-0.0193 0.11937,-0.0729 0.0143,-0.0535 0.0795,-0.12821 0.1447,-0.16588 0.0652,-0.0376 0.10836,-0.10135 0.0961,-0.14211 -0.0343,-0.11431 0.25523,-0.5171 0.35295,-0.49092 0.0477,0.0128 0.077,-0.009 0.0651,-0.0491 -0.0119,-0.0398 0.0218,-0.0608 0.0749,-0.0465 0.07,0.0188 0.11334,-0.0368 0.15761,-0.20205 0.0648,-0.242 0.51398,-0.96433 0.6072,-0.97669 0.0304,-0.004 0.0708,-0.066 0.0899,-0.13745 0.0191,-0.0714 0.0944,-0.21481 0.16691,-0.31885 0.0968,-0.13881 0.1589,-0.17356 0.23409,-0.13074 0.0808,0.0461 0.11282,0.0201 0.1509,-0.12196 0.0266,-0.0991 0.0172,-0.1883 -0.0207,-0.19843 -0.0683,-0.0183 -0.003,-0.20493 0.20102,-0.5762 0.0564,-0.10258 0.0766,-0.1431 0.0522,-0.14055 z m 8.13801,2.08256 c -0.0693,0.004 -0.0782,0.0453 -0.0119,0.11575 0.0284,0.0302 -0.008,0.27656 -0.0806,0.54725 -0.10475,0.39092 -0.11294,0.49693 -0.0408,0.51625 0.19447,0.0521 0.15468,0.65114 -0.0512,0.76998 -0.0734,0.0424 -0.0747,0.0602 -0.005,0.0801 0.0493,0.0139 0.11146,0.1583 0.13849,0.31988 0.027,0.16158 0.0883,0.39386 0.13591,0.51624 0.0477,0.12236 0.0918,0.33072 0.0982,0.46354 0.006,0.13281 0.0564,0.35576 0.1111,0.49506 0.0661,0.1682 0.0754,0.29704 0.0274,0.38344 -0.0511,0.0921 -0.045,0.13717 0.0217,0.15503 0.0518,0.0139 0.0879,0.0491 0.0801,0.078 -0.008,0.0289 0.0242,0.13101 0.0708,0.22686 0.11489,0.23623 0.0806,0.57643 -0.0791,0.78445 -0.0778,0.10139 -0.11115,0.1922 -0.0832,0.22583 0.0257,0.0309 0.0599,0.14171 0.076,0.24649 0.029,0.18939 0.10676,0.26179 0.19379,0.17984 0.0251,-0.0236 0.21708,-0.037 0.42685,-0.0295 0.20977,0.008 0.41419,-0.003 0.45423,-0.0222 0.0401,-0.0199 0.13477,-0.0197 0.21032,5.3e-4 0.0756,0.0203 0.153,0.0159 0.17209,-0.01 0.0191,-0.0257 0.14224,-0.0356 0.27336,-0.0217 0.18904,0.02 0.23803,0.0481 0.23772,0.13643 -2.6e-4,0.0739 0.0151,0.0626 0.046,-0.0336 0.0359,-0.11163 0.0721,-0.13015 0.15813,-0.0811 0.0645,0.0367 0.13558,0.0305 0.16795,-0.0139 0.0309,-0.0424 0.0932,-0.067 0.139,-0.0548 0.0458,0.0122 0.15071,-0.0128 0.23307,-0.0558 0.16105,-0.0841 0.88051,-0.17578 1.05058,-0.13384 0.20106,0.0496 0.61563,-0.23155 0.41909,-0.28422 -0.0341,-0.009 -0.0531,-0.0518 -0.0424,-0.0946 0.0107,-0.0428 -0.0584,-0.14348 -0.15348,-0.22376 -0.11901,-0.10049 -0.17186,-0.21121 -0.16949,-0.35605 0.002,-0.14713 -0.0369,-0.2279 -0.13023,-0.26768 -0.0944,-0.0402 -0.12593,-0.10713 -0.108,-0.22841 0.0193,-0.13084 -0.0154,-0.19216 -0.14625,-0.25994 -0.20587,-0.10669 -0.5519,-0.70268 -0.48214,-0.83044 0.0331,-0.0606 0.007,-0.10035 -0.078,-0.1204 -0.0767,-0.0177 -0.12872,-0.0834 -0.12971,-0.1633 -10e-4,-0.0861 -0.0638,-0.15788 -0.17725,-0.20309 -0.15637,-0.0623 -0.56265,-0.51356 -0.58394,-0.64854 -0.004,-0.0286 -0.046,-0.0621 -0.092,-0.0744 -0.046,-0.0123 -0.0859,-0.0765 -0.0889,-0.14263 -0.003,-0.066 -0.0674,-0.14144 -0.14263,-0.16743 -0.288,-0.0994 -0.51906,-0.23208 -0.50384,-0.28887 0.009,-0.0325 -0.0164,-0.0678 -0.0563,-0.0786 -0.0399,-0.0107 -0.10714,-0.068 -0.14883,-0.12764 -0.0417,-0.0596 -0.18102,-0.17186 -0.31006,-0.24908 -0.12904,-0.0772 -0.29144,-0.23045 -0.3607,-0.34055 -0.0693,-0.11009 -0.15312,-0.20756 -0.18655,-0.21652 -0.0334,-0.009 -0.0672,-0.084 -0.0749,-0.16692 -0.0107,-0.11513 -0.0671,-0.16681 -0.23823,-0.21911 -0.0814,-0.0249 -0.14448,-0.0352 -0.18604,-0.0325 z m 11.54399,8.51317 c -0.0397,0.009 -0.0655,0.0351 -0.0791,0.0858 -0.0177,0.0659 -0.0921,0.12274 -0.16588,0.12609 -0.0738,0.003 -0.19283,0.0397 -0.26458,0.0811 -0.0718,0.0414 -0.35481,0.12088 -0.6289,0.17621 -0.27407,0.0553 -0.51479,0.14074 -0.53485,0.19017 -0.23487,0.57884 -0.27864,0.65606 -0.3607,0.63407 -0.0491,-0.0131 -0.10422,0.0321 -0.12248,0.10025 -0.0185,0.0689 0.008,0.13499 0.0599,0.14883 0.0901,0.0242 0.0799,0.11988 -0.0827,0.78807 -0.0226,0.0924 -0.0151,0.21251 0.016,0.26665 0.0651,0.11312 -0.0907,0.76321 -0.17725,0.74 -0.0967,-0.0259 -0.16307,0.17739 -0.13435,0.41032 0.0364,0.29575 -0.0458,0.58113 -0.17106,0.59428 -0.0874,0.009 -0.0936,0.0383 -0.0455,0.21962 0.0728,0.27438 -0.11613,0.64535 -0.34674,0.68058 -0.16932,0.0259 -0.24897,0.16661 -0.11473,0.20257 0.18093,0.0485 0.1313,0.77606 -0.0605,0.88677 -0.0516,0.0298 -0.0706,0.11563 -0.0568,0.25373 0.0216,0.21731 0.002,0.2536 -0.27956,0.52245 -0.23337,0.22292 -0.34891,0.58378 -0.26666,0.83251 0.0475,0.14359 0.0382,0.26291 -0.0326,0.42323 -0.0542,0.12275 -0.13353,0.30348 -0.17673,0.40152 -0.16078,0.36492 -0.41128,0.78649 -0.4594,0.7736 -0.0274,-0.007 -0.0681,0.0564 -0.0909,0.14159 -0.0351,0.13084 -0.0704,0.14696 -0.22738,0.1049 l -0.18603,-0.0496 -0.11628,0.4346 c -0.10906,0.40704 -0.12957,0.4387 -0.31626,0.49661 -0.13961,0.0433 -0.20435,0.10534 -0.21652,0.20671 -0.0117,0.0975 -0.0493,0.13639 -0.11472,0.11885 -0.0535,-0.0143 -0.10508,0.002 -0.11421,0.0357 -0.009,0.034 0.0254,0.0736 0.0765,0.0873 0.12643,0.0339 -0.0381,0.66946 -0.19172,0.74 -0.0584,0.0268 -0.14519,0.11865 -0.19275,0.20412 -0.0476,0.0855 -0.18108,0.20551 -0.29662,0.26665 -0.11554,0.0611 -0.27727,0.17321 -0.35915,0.24909 -0.0819,0.0759 -0.21458,0.13017 -0.29507,0.1204 -0.0911,-0.0111 -0.20169,0.0482 -0.29301,0.15761 -0.0807,0.0966 -0.19521,0.17886 -0.25425,0.18242 -0.11967,0.007 -0.27296,0.16439 -0.39946,0.4098 -0.0484,0.0938 -0.14811,0.1693 -0.23616,0.17828 -0.10541,0.0108 -0.20028,0.0975 -0.30644,0.28164 -0.20787,0.36043 -0.21929,0.43045 -0.0868,0.51521 0.10496,0.0671 0.10017,0.1142 -0.0625,0.62735 -0.0968,0.30531 -0.20986,0.56534 -0.25115,0.57774 -0.0434,0.013 -0.063,0.0639 -0.046,0.12041 0.0161,0.0537 0.0645,0.0871 0.10697,0.0744 0.0426,-0.0128 0.0976,0.0709 0.12299,0.18707 0.022,0.10075 0.0326,0.17315 0.0305,0.22376 a 18,18 0 0 0 8.82013,-15.4652 18,18 0 0 0 -0.0186,-0.76585 z m -5.82496,0.33642 c -0.0103,-0.007 -0.0349,0.0464 -0.0636,0.14159 -0.0708,0.23489 -0.21722,0.283 -0.27802,0.0915 -0.0385,-0.12125 -0.22132,-0.18049 -0.28525,-0.0925 -0.0345,0.0475 -0.007,0.0707 0.0832,0.0713 0.11794,7.9e-4 0.12088,0.0125 0.0274,0.0997 -0.1355,0.12643 -0.93103,0.31063 -1.11673,0.25839 -0.0774,-0.0222 -0.1663,-0.005 -0.1974,0.0382 -0.0827,0.1139 -0.47573,-0.005 -0.47543,-0.14418 1.4e-4,-0.0603 -0.0268,-0.0199 -0.0605,0.0899 -0.0479,0.15622 -0.0885,0.1924 -0.18551,0.16639 -0.0682,-0.0183 -0.11777,-0.0548 -0.11059,-0.0816 0.007,-0.0268 -0.0429,-0.0639 -0.11111,-0.0822 -0.0682,-0.0183 -0.12858,-0.0153 -0.13436,0.006 -0.0326,0.12167 -0.33605,0.22485 -0.62166,0.21187 -0.57435,-0.0261 -1.17314,0.0405 -1.19786,0.13281 -0.0129,0.0481 0.0163,0.098 0.0651,0.11111 0.0488,0.0131 0.0917,0.0841 0.0951,0.15813 0.003,0.074 0.0328,0.14171 0.0651,0.15037 0.0958,0.0257 0.19974,0.47118 0.15193,0.65061 -0.0243,0.0913 -0.0136,0.21888 0.0238,0.2837 0.0771,0.13348 -0.0615,0.75718 -0.16227,0.73019 -0.0341,-0.009 -0.0694,0.011 -0.0786,0.045 -0.009,0.0342 0.0393,0.0773 0.10749,0.0956 0.0833,0.0223 0.11257,0.074 0.0899,0.15865 -0.0186,0.0692 0.003,0.15225 0.047,0.18448 0.11431,0.083 0.15793,0.6224 0.0625,0.77153 -0.0587,0.0917 -0.0462,0.1794 0.0481,0.34262 0.20234,0.35048 0.0951,1.39183 -0.18294,1.77715 -0.0669,0.0928 -0.0816,0.14864 -0.0424,0.15916 0.0332,0.009 0.0419,0.0842 0.0196,0.16744 -0.0223,0.0832 -0.0182,0.17495 0.009,0.2036 0.027,0.0286 0.0535,0.23185 0.0594,0.45165 0.006,0.2198 0.0463,0.40898 0.0899,0.42065 0.0526,0.0141 0.0542,0.11513 0.005,0.30024 -0.0411,0.15339 -0.10285,0.27166 -0.13694,0.26252 -0.0341,-0.009 -0.0736,0.0265 -0.0879,0.0796 -0.0143,0.0532 0.005,0.0876 0.0419,0.0765 0.037,-0.0112 0.0913,0.0462 0.12092,0.12764 0.0296,0.0814 0.0759,0.13547 0.10284,0.11989 0.0899,-0.0519 0.41047,0.27665 0.45475,0.46612 l 0.0434,0.18655 0.14934,-0.11524 c 0.0821,-0.0635 0.18638,-0.14159 0.23151,-0.17363 0.11228,-0.0797 0.19934,-0.43101 0.11266,-0.45423 -0.0907,-0.0243 0.11091,-0.52247 0.21394,-0.52865 0.095,-0.005 0.2809,-0.21156 0.56276,-0.62374 0.12442,-0.18194 0.25203,-0.34076 0.2837,-0.35295 0.0687,-0.0264 0.35507,-0.52052 0.40101,-0.69195 0.0178,-0.0663 0.11001,-0.16238 0.20515,-0.2129 0.14799,-0.0786 0.18473,-0.14599 0.25373,-0.46613 0.0596,-0.27637 0.10175,-0.3681 0.16175,-0.35191 0.0623,0.0168 0.10975,-0.10271 0.20257,-0.51056 0.0666,-0.29278 0.144,-0.52636 0.17209,-0.51884 0.0281,0.008 0.15837,-0.38643 0.28939,-0.8754 0.18668,-0.69672 0.26485,-0.90769 0.3607,-0.97565 0.0932,-0.0661 0.15535,-0.22596 0.26096,-0.67127 0.10197,-0.42996 0.1584,-0.57881 0.21446,-0.56379 0.0593,0.0159 0.0641,-5.3e-4 0.0217,-0.0739 -0.0299,-0.0519 -0.0383,-0.15266 -0.0191,-0.22428 0.0524,-0.19567 -0.0157,-0.47464 -0.14108,-0.57825 -0.0612,-0.0507 -0.0951,-0.12423 -0.0755,-0.1633 0.0196,-0.0391 -0.005,-0.0816 -0.0532,-0.0946 -0.0486,-0.013 -0.0877,-0.0762 -0.0873,-0.14004 1e-4,-0.016 -0.002,-0.0247 -0.005,-0.0269 z m -12.22406,0.97358 c -0.0108,0.005 -0.0291,0.0456 -0.0501,0.11421 -0.0576,0.18778 -0.18015,0.23591 -0.25787,0.10128 -0.0551,-0.0955 -0.26503,-0.13844 -0.31832,-0.0651 -0.0324,0.0447 -0.0145,0.0671 0.0486,0.0605 0.0811,-0.009 0.0701,0.0204 -0.0574,0.14831 -0.14204,0.14277 -0.20518,0.15309 -0.62994,0.10439 -0.25962,-0.0297 -0.61745,-0.092 -0.7953,-0.1385 -0.54728,-0.14311 -1.27452,-0.21843 -1.35134,-0.13952 -0.0668,0.0687 -0.38637,0.1053 -0.48317,0.0553 -0.0241,-0.0121 -0.0502,5.3e-4 -0.0579,0.0295 -0.0268,0.0999 -0.31762,0.25721 -0.42323,0.22892 -0.0583,-0.0156 -0.24697,0.0567 -0.4191,0.16072 -0.221619,0.13394 -0.345801,0.17039 -0.42633,0.12454 -0.09989,-0.0569 -0.12261,-0.0331 -0.183967,0.19585 -0.05888,0.21973 -0.119224,0.29065 -0.38654,0.45217 -0.221345,0.13375 -0.331685,0.2459 -0.365353,0.37155 -0.02653,0.099 -0.114829,0.23403 -0.196371,0.29973 -0.240786,0.19402 -0.369099,0.31724 -0.438732,0.42219 -0.03601,0.0543 -0.08978,0.0918 -0.11989,0.0837 -0.03011,-0.008 -0.07329,0.0553 -0.09612,0.14056 -0.02283,0.0852 -0.06634,0.14816 -0.09663,0.14004 -0.03029,-0.008 -0.09965,0.0779 -0.153996,0.1912 -0.05435,0.11333 -0.125584,0.19889 -0.158131,0.19017 -0.03254,-0.009 -0.07744,0.0522 -0.09973,0.1354 -0.02228,0.0832 -0.07336,0.161 -0.113688,0.17311 -0.121722,0.0366 -0.329097,0.34798 -0.543637,0.81701 -0.318762,0.6969 -0.326766,0.70966 -0.423746,0.68368 -0.06358,-0.0171 -0.109599,0.0419 -0.149863,0.19223 -0.03197,0.1193 -0.02991,0.22445 0.0041,0.23358 0.09295,0.0249 0.03885,0.15519 -0.16278,0.39274 -0.09949,0.11722 -0.244496,0.382 -0.32246,0.5886 -0.141732,0.37557 -0.141971,0.37589 0.03772,0.7059 0.150754,0.27685 0.213947,0.33601 0.390675,0.36741 0.153702,0.0273 0.288272,0.12212 0.497126,0.35089 0.157459,0.17247 0.356063,0.33217 0.441317,0.35502 0.240543,0.0645 0.435756,0.25573 0.39946,0.39118 -0.02474,0.0923 5.29e-4,0.12185 0.105418,0.12248 0.09783,5.3e-4 0.122015,0.0226 0.0832,0.076 -0.03007,0.0414 -0.02373,0.1192 0.01447,0.17312 0.05673,0.0801 0.07609,0.0739 0.104905,-0.0336 0.02085,-0.0778 0.07461,-0.12074 0.131775,-0.10542 0.05315,0.0142 0.07202,0.0491 0.04186,0.0775 -0.06682,0.0629 0.216586,0.11599 0.292489,0.0548 0.09239,-0.0745 0.417071,0.14062 0.453202,0.30024 0.04917,0.21719 0.111955,0.27142 0.406177,0.3514 0.142722,0.0388 0.269193,0.10287 0.28112,0.14263 0.01193,0.0398 0.07695,0.0869 0.144177,0.1049 0.06723,0.018 0.126883,0.079 0.132807,0.13539 0.006,0.0564 0.06612,0.11725 0.133843,0.1354 0.07267,0.0195 0.122959,0.09 0.122473,0.17156 -5.3e-4,0.10214 0.01791,0.12064 0.0708,0.0708 0.08071,-0.076 0.88427,0.13582 0.92087,0.24288 0.0117,0.0342 0.33279,0.18252 0.71365,0.32918 0.38086,0.1467 0.69479,0.29018 0.69712,0.31936 0.006,0.0712 0.18295,0.11616 0.2005,0.0506 0.008,-0.0284 0.0693,-0.0364 0.13746,-0.0181 0.0682,0.0183 0.11661,0.061 0.10749,0.0951 -0.009,0.0341 0.0114,0.0694 0.0455,0.0785 0.0341,0.009 0.0735,-0.0272 0.0879,-0.0806 0.0185,-0.069 0.059,-0.0758 0.13952,-0.0243 0.0624,0.0399 0.11992,0.0495 0.12764,0.0217 0.0183,-0.0654 0.34667,-0.12323 0.37931,-0.0667 0.0137,0.0238 0.008,0.11619 -0.0119,0.20516 l -0.0367,0.16174 0.0837,-0.14211 c 0.0663,-0.11231 0.12982,-0.13309 0.30231,-0.0987 0.12,0.024 0.33866,0.0601 0.48576,0.0806 0.17761,0.0248 0.27062,0.0656 0.2775,0.12144 0.006,0.0461 0.0285,0.0253 0.0506,-0.0465 0.0615,-0.19947 0.24691,-0.26286 0.35346,-0.12093 0.0471,0.0627 0.0949,0.13732 0.10646,0.16589 0.0276,0.068 0.14061,0.0234 0.26355,-0.10439 0.0707,-0.0734 0.27379,-0.0974 0.71985,-0.0842 0.94538,0.0278 1.08462,0.0254 1.33325,-0.0253 0.1264,-0.0257 0.26727,-0.0367 0.31316,-0.0243 0.0459,0.0123 0.0936,-0.0142 0.10542,-0.0584 0.0119,-0.0443 0.15623,-0.11735 0.32091,-0.16278 0.16469,-0.0454 0.39042,-0.13558 0.50178,-0.19998 0.11136,-0.0644 0.29681,-0.11096 0.41238,-0.10336 0.25011,0.0165 0.51648,-0.12224 0.56224,-0.293 0.0534,-0.19916 -0.026,-0.67279 -0.11679,-0.69712 -0.0461,-0.0123 -0.0886,-0.1654 -0.0946,-0.34054 -0.006,-0.17513 -0.0273,-0.43349 -0.0475,-0.57413 -0.0203,-0.14095 0.0135,-0.46761 0.0749,-0.7276 0.0613,-0.2594 0.089,-0.4775 0.062,-0.48473 -0.14073,-0.0377 -0.3188,-0.4818 -0.29301,-0.7307 0.0154,-0.14861 0.004,-0.27677 -0.0259,-0.28474 -0.0297,-0.008 -0.0316,-0.0983 -0.004,-0.20051 0.0274,-0.10227 0.0286,-0.19145 0.003,-0.19843 -0.0844,-0.0226 -0.17679,-0.70371 -0.11111,-0.81907 0.0441,-0.0775 0.0287,-0.1319 -0.0491,-0.17622 -0.0988,-0.0563 -0.0978,-0.11124 0.009,-0.45165 0.11404,-0.36426 0.11122,-0.68941 -0.006,-0.72089 -0.0848,-0.0227 -0.11118,-0.35005 -0.0579,-0.71572 0.028,-0.19208 0.0233,-0.35673 -0.0109,-0.36587 -0.0394,-0.0105 -0.003,-0.17642 0.0997,-0.45578 0.13629,-0.37086 0.15248,-0.48577 0.10542,-0.73278 -0.0307,-0.16103 -0.0478,-0.32187 -0.0382,-0.3576 0.01,-0.0357 -0.01,-0.0721 -0.0434,-0.0811 -0.0334,-0.009 -0.0598,-0.09 -0.0584,-0.17983 0.002,-0.0976 -0.10286,-0.28342 -0.25941,-0.46199 -0.14409,-0.16437 -0.30737,-0.37366 -0.36328,-0.46457 -0.0559,-0.0909 -0.1224,-0.14536 -0.1478,-0.12144 -0.0254,0.024 -0.39522,0.0307 -0.82166,0.0155 -0.42643,-0.0152 -0.911,-0.0226 -1.07693,-0.017 -0.53384,0.0183 -0.72814,-0.009 -0.70487,-0.10026 0.0168,-0.0657 0.005,-0.0683 -0.0568,-0.0114 -0.0429,0.0396 -0.11795,0.0429 -0.16691,0.007 -0.0567,-0.0412 -0.0981,-0.032 -0.11369,0.0263 -0.0403,0.15039 -0.21282,0.0543 -0.17983,-0.10026 0.0227,-0.10639 0.0158,-0.11621 -0.0274,-0.0403 -0.0316,0.0554 -0.0949,0.0903 -0.14108,0.078 -0.0461,-0.0124 -0.0836,-0.0747 -0.0832,-0.13849 1.5e-4,-0.0239 -0.004,-0.0335 -0.0103,-0.0305 z m -12.115542,1.28881 c -0.0089,-0.004 -0.01677,0.0111 -0.02585,0.0434 -0.01368,0.049 -0.05824,0.0588 -0.106968,0.0232 -0.04587,-0.0333 -0.09097,-0.0321 -0.100253,0.003 -0.0093,0.0346 -0.167312,0.15086 -0.351402,0.25838 -0.312136,0.18232 -0.334092,0.20929 -0.322458,0.40514 0.0069,0.11552 0.02711,0.23573 0.04496,0.26666 0.05298,0.0918 -0.08042,0.50179 -0.182419,0.56069 -0.07335,0.0424 -0.06419,0.0626 0.04186,0.091 0.07499,0.0201 0.129013,0.0646 0.119888,0.0987 -0.0091,0.0341 0.02535,0.0731 0.07648,0.0868 0.05113,0.0137 0.08234,0.0648 0.06925,0.11369 -0.0131,0.0489 0.02698,0.12131 0.0894,0.16123 0.06242,0.0399 0.128381,0.14182 0.146245,0.22635 0.05731,0.27112 0.188357,0.62647 0.236162,0.63975 0.02553,0.007 0.0863,-0.13717 0.135393,-0.32039 h 5.29e-4 c 0.121809,-0.45461 0.253172,-0.70467 0.356566,-0.67696 0.05983,0.016 0.08718,-0.0248 0.08888,-0.13282 0.0031,-0.19441 0.267827,-0.54474 0.495062,-0.65525 0.166065,-0.0808 0.168658,-0.0867 0.07751,-0.19999 -0.07121,-0.0885 -0.07287,-0.16397 -0.0057,-0.31161 0.174773,-0.3838 0.300225,-0.50295 0.485759,-0.46147 0.106068,0.0235 0.134874,0.0169 0.07338,-0.0181 -0.05547,-0.0316 -0.09423,-0.0837 -0.08578,-0.11523 0.0235,-0.0876 -0.103241,-0.10092 -0.235128,-0.0248 -0.06483,0.0374 -0.17036,0.0543 -0.234095,0.0372 -0.06373,-0.017 -0.14034,-0.008 -0.170532,0.0207 -0.03021,0.0285 -0.123547,0.0332 -0.207222,0.0108 -0.08367,-0.0224 -0.217479,-0.0209 -0.297656,0.003 -0.120152,0.0363 -0.151622,0.0246 -0.179834,-0.0651 -0.0132,-0.0419 -0.02318,-0.0644 -0.03204,-0.0682 z m -5.395537,0.37569 c -0.01998,-0.009 -0.04568,0.0464 -0.07958,0.17105 -0.03236,0.11899 -0.06873,0.19216 -0.137459,0.25424 a 18,18 0 0 0 2.961058,7.53908 c 0.05492,-0.16321 0.124193,-0.40109 0.225827,-0.75758 0.164783,-0.57795 0.278578,-1.05657 0.252699,-1.0635 -0.07392,-0.0198 -0.600216,-0.93605 -0.580327,-1.01027 0.0098,-0.0366 -0.03063,-0.061 -0.08992,-0.0548 -0.115067,0.0121 -0.573786,-0.69206 -0.537953,-0.82579 0.01064,-0.0398 -0.01225,-0.11714 -0.05116,-0.17208 -0.03891,-0.0549 -0.05622,-0.1306 -0.03824,-0.16795 0.01799,-0.0374 -0.02495,-0.0751 -0.0956,-0.0842 -0.08784,-0.0113 -0.239149,-0.21076 -0.478523,-0.63149 -0.192492,-0.33834 -0.340259,-0.65073 -0.328663,-0.69401 0.01162,-0.0433 -0.05704,-0.19682 -0.151929,-0.34107 -0.154948,-0.23557 -0.162322,-0.28422 -0.07493,-0.47852 0.07969,-0.17716 0.07827,-0.22138 -0.0072,-0.24495 -0.139319,-0.0387 -0.272817,-0.46986 -0.240813,-0.77876 l 0.02585,-0.24857 -0.307475,-0.0754 c -0.208058,-0.0508 -0.292798,-0.0954 -0.261482,-0.1385 0.02545,-0.035 0.032,-0.10969 0.01447,-0.16588 -0.0055,-0.0175 -0.01193,-0.0279 -0.0186,-0.031 z m 5.82807,7.92613 c -0.0074,0.004 -0.0154,0.0222 -0.02532,0.0543 -0.02268,0.0733 -0.0836,0.0942 -0.192236,0.0651 -0.129558,-0.0347 -0.157834,-0.0184 -0.152963,0.0884 0.0065,0.14312 -0.220038,0.42673 -0.466638,0.58446 -0.08687,0.0556 -0.182462,0.19178 -0.21549,0.30747 -0.03262,0.11431 -0.18569,0.35798 -0.340032,0.54105 -0.093,0.11032 -0.166087,0.20234 -0.220141,0.27389 a 18,18 0 0 0 13.363529,5.95054 18,18 0 0 0 6.35206,-1.17357 c 0.006,-0.11953 0.0232,-0.22893 0.0568,-0.28939 0.0574,-0.10314 0.054,-0.14883 -0.0134,-0.16691 -0.051,-0.0137 -0.11995,-0.10653 -0.15296,-0.20671 -0.0501,-0.15214 -0.10868,-0.19534 -0.35553,-0.26148 -0.32231,-0.0864 -0.35364,-0.1585 -0.24546,-0.56948 0.0277,-0.10561 0.0169,-0.205 -0.0243,-0.2222 -0.041,-0.0174 -0.17434,-0.0763 -0.29663,-0.13126 -0.17974,-0.0808 -0.22746,-0.0807 -0.24908,0 -0.0147,0.0549 -0.0675,0.0887 -0.1173,0.0754 -0.0498,-0.0133 -0.1544,0.0131 -0.23203,0.0589 -0.0776,0.0457 -0.28644,0.0966 -0.46406,0.11317 -0.17762,0.0166 -0.34528,0.0518 -0.3731,0.078 -0.0278,0.0262 -0.10488,0.0332 -0.17105,0.0155 -0.0662,-0.0177 -0.12643,-0.01 -0.13384,0.0181 -0.007,0.0277 -0.16402,0.0485 -0.3483,0.0465 -0.18481,-0.002 -0.38202,0.0401 -0.43976,0.094 -0.0576,0.0537 -0.14001,0.088 -0.18294,0.0765 -0.0429,-0.0115 -0.0847,0.005 -0.093,0.0357 -0.008,0.0311 -0.13878,0.044 -0.2899,0.0284 -0.15113,-0.0155 -0.341,-0.008 -0.42168,0.0176 -0.0807,0.0251 -0.31675,0.069 -0.52452,0.0977 -0.20777,0.0288 -0.45765,0.0849 -0.55552,0.12505 -0.0979,0.04 -0.22995,0.0589 -0.29352,0.0419 -0.0636,-0.0171 -0.12263,-0.006 -0.13074,0.0243 -0.008,0.0303 -0.13317,0.0234 -0.27802,-0.0155 -0.86197,-0.23153 -2.04468,-0.47029 -2.22158,-0.44803 -0.22701,0.0285 -2.27071,-0.5695 -2.30786,-0.67541 -0.0286,-0.0817 -0.2131,-0.20369 -0.22738,-0.15038 -0.0103,0.0384 -0.289592,-0.0327 -1.414899,-0.36018 -0.163161,-0.0473 -0.194596,-0.0849 -0.170016,-0.19999 0.0227,-0.10639 0.0158,-0.11622 -0.02739,-0.0403 -0.03156,0.0555 -0.09709,0.09 -0.145727,0.077 -0.04863,-0.013 -0.07737,-0.073 -0.06408,-0.13333 0.01445,-0.0656 0.0032,-0.0821 -0.0279,-0.0408 -0.0839,0.11144 -0.26865,0.0237 -0.381889,-0.18139 -0.09554,-0.17304 -0.139991,-0.19611 -0.493512,-0.25631 -0.257074,-0.0438 -0.39666,-0.0937 -0.412895,-0.1478 -0.01352,-0.045 -0.07991,-0.0967 -0.147278,-0.11472 -0.06736,-0.0181 -0.181933,-0.0993 -0.254764,-0.18086 -0.09261,-0.1037 -0.300403,-0.20103 -0.691431,-0.3235 -0.652838,-0.20448 -1.219089,-0.5636 -1.170987,-0.74311 0.01807,-0.0674 -0.0177,-0.12151 -0.09457,-0.14211 -0.06818,-0.0183 -0.115285,-0.0535 -0.104386,-0.078 0.0109,-0.0245 0.02749,-0.0872 0.03669,-0.13952 0.01479,-0.0846 0.0071,-0.0866 -0.0677,-0.0181 -0.05963,0.0546 -0.104178,0.0525 -0.152961,-0.008 -0.03785,-0.0467 -0.170053,-0.19886 -0.293524,-0.33797 -0.123462,-0.13911 -0.270915,-0.33946 -0.327628,-0.44545 -0.09571,-0.17889 -0.09486,-0.18819 0.01241,-0.12712 0.08195,0.0467 0.112972,0.0385 0.105939,-0.0284 -0.0055,-0.052 -0.04266,-0.085 -0.08268,-0.0729 -0.04002,0.012 -0.0867,-0.0231 -0.10387,-0.078 -0.02469,-0.079 -0.03773,-0.077 -0.0615,0.008 -0.01844,0.0667 -0.07762,0.0954 -0.153998,0.0749 -0.06818,-0.0183 -0.11661,-0.061 -0.107487,-0.0951 0.0091,-0.0341 -0.02074,-0.0719 -0.06666,-0.0842 -0.04592,-0.0123 -0.09673,-0.0932 -0.11317,-0.17983 -0.01487,-0.0784 -0.02593,-0.11174 -0.03824,-0.10491 z m 20.721219,5.4069 c -0.036,0.006 -0.0604,0.0346 -0.0853,0.0992 a 18,18 0 0 0 0.15347,-0.0915 c -7.9e-4,-2.1e-4 -10e-4,-2.7e-4 -0.002,-5.3e-4 -0.0261,-0.007 -0.0477,-0.0101 -0.0661,-0.007 z" />
  </g>
</svg>
